# xmcd CD database file generated by OrangeCD 5.2
#
# Track frame offsets:
#	150
#	17252
#	31504
#	55282
#	84377
#	100429
#	119032
#
# Disc length: 2256 seconds
#
# Revision: 1
# Processed by: cddbd v1.5.1PL0 Copyright (c) Steve Scherf et al.
# Submitted via: OrangeCD 5.2
#
DISCID=4c08ce07
DTITLE=Johnny and Edgar Winter - Together
DYEAR=1900
DGENRE=
TTITLE0=Harlem Shuffle 
TTITLE1=Soul Man 
TTITLE2=You've Lost That Lovin' Feelin' 
TTITLE3=Rock and Roll Medley 
TTITLE4=Let The Good Times Roll 
TTITLE5=Mercy Mercy 
TTITLE6=Baby Whatcha Want Me To Do 
EXTD=
EXTT0=
EXTT1=
EXTT2=
EXTT3=
EXTT4=
EXTT5=
EXTT6=
PLAYORDER=
